<svg width="18" height="32" viewBox="0 0 18 32" fill="none" xmlns="http://www.w3.org/2000/svg">
<path d="M1.43416 17.0432H4.94184V31.4839C4.94184 31.769 5.17284 32 5.45797 32H11.4054C11.6905 32 11.9215 31.769 11.9215 31.4839V17.1112H15.954C16.2162 17.1112 16.4368 16.9145 16.4667 16.6541L17.0792 11.3378C17.096 11.1915 17.0497 11.045 16.9518 10.9353C16.8538 10.8254 16.7137 10.7626 16.5665 10.7626H11.9218V7.43C11.9218 6.42544 12.4627 5.916 13.5297 5.916C13.6817 5.916 16.5665 5.916 16.5665 5.916C16.8517 5.916 17.0827 5.68488 17.0827 5.39988V0.519938C17.0827 0.234813 16.8517 0.0038125 16.5665 0.0038125H12.3812C12.3517 0.002375 12.2862 0 12.1895 0C11.4633 0 8.93916 0.142562 6.94522 1.97687C4.73597 4.00962 5.04309 6.44344 5.11647 6.86544V10.7624H1.43409C1.14897 10.7624 0.917969 10.9934 0.917969 11.2786V16.527C0.918031 16.8121 1.14903 17.0432 1.43416 17.0432Z" fill="#385C8E"/>
</svg>
