<svg width="12" height="32" viewBox="0 0 12 32" fill="none" xmlns="http://www.w3.org/2000/svg">
<path d="M8.90768 24H3.08949C2.69546 24 2.35453 24.1442 2.06653 24.4318C1.77877 24.7198 1.63477 25.0605 1.63477 25.4545V30.5453C1.63477 30.9392 1.77877 31.2802 2.06653 31.5685C2.35477 31.8559 2.69538 32 3.08949 32H8.90816C9.30155 32 9.64265 31.8559 9.93089 31.5685C10.2182 31.2803 10.3623 30.9392 10.3623 30.5453V25.4545C10.3623 25.0605 10.218 24.7198 9.93033 24.4318C9.64241 24.1439 9.30131 24 8.90768 24Z" fill="url(#paint0_radial)"/>
<path d="M10.647 0.431763C10.3668 0.144239 10.0297 0 9.63553 0H2.36317C1.96929 0 1.63242 0.144239 1.35198 0.431763C1.0717 0.719684 0.939162 1.06078 0.954287 1.45465L1.59047 18.9086C1.60559 19.3025 1.76074 19.6438 2.0563 19.9313C2.3517 20.2195 2.69638 20.3636 3.09041 20.3636H8.90909C9.30248 20.3636 9.64708 20.2195 9.9432 19.9313C10.2385 19.6439 10.3932 19.3026 10.409 18.9086L11.0448 1.45465C11.0606 1.06078 10.9274 0.720002 10.647 0.431763Z" fill="url(#paint1_radial)"/>
<defs>
<radialGradient id="paint0_radial" cx="0" cy="0" r="1" gradientUnits="userSpaceOnUse" gradientTransform="translate(10.3623 24.5818) rotate(113.736) scale(15.8101 59.1629)">
<stop stop-color="#770D37"/>
<stop offset="1" stop-color="#211452"/>
</radialGradient>
<radialGradient id="paint1_radial" cx="0" cy="0" r="1" gradientUnits="userSpaceOnUse" gradientTransform="translate(11.0461 1.48098) rotate(101.297) scale(37.5675 73.2926)">
<stop stop-color="#770D37"/>
<stop offset="1" stop-color="#211452"/>
</radialGradient>
</defs>
</svg>
