<svg width="24" height="24" viewBox="0 0 24 24" fill="none" xmlns="http://www.w3.org/2000/svg">
<path d="M0.738281 5.41324V18.5633C0.738281 21.1452 2.83131 23.2383 5.41324 23.2383H18.5633C21.1452 23.2383 23.2383 21.1452 23.2383 18.5633V5.41324C23.2383 2.83131 21.1452 0.738281 18.5633 0.738281H5.41324C2.83131 0.738281 0.738281 2.83131 0.738281 5.41324ZM14.3716 18.3634C8.82202 20.2782 3.69841 15.1545 5.61319 9.60493C6.25836 7.73451 7.73438 6.25836 9.6048 5.61319C15.1545 3.69841 20.2782 8.82202 18.3634 14.3718C17.7182 16.2422 16.2422 17.7182 14.3716 18.3634ZM19.7956 5.18472C19.7073 5.64711 19.3247 5.91614 18.9289 5.91614C18.688 5.91614 18.4425 5.81671 18.2545 5.60097C18.2379 5.58188 18.2223 5.56142 18.2086 5.54013C18.0146 5.2435 18.0085 4.89111 18.1734 4.60533C18.2902 4.40305 18.4786 4.25858 18.7042 4.19815C18.9296 4.13745 19.1652 4.16862 19.3672 4.28549C19.6532 4.45029 19.824 4.75859 19.8045 5.11208C19.8031 5.13625 19.8002 5.16083 19.7956 5.18472Z" fill="white"/>
<path d="M11.9883 6.52246C8.97421 6.52246 6.52234 8.97433 6.52234 11.9884C6.52234 15.0025 8.97421 17.4544 11.9883 17.4544C15.0024 17.4544 17.4543 15.0025 17.4543 11.9884C17.4543 8.97433 15.0024 6.52246 11.9883 6.52246Z" fill="white"/>
</svg>
