<svg width="92" height="81" viewBox="0 0 92 81" fill="none" xmlns="http://www.w3.org/2000/svg">
<path fill-rule="evenodd" clip-rule="evenodd" d="M46.4314 41.5419L46.12 42.7966C45.2388 43.2307 44.2688 43.4449 43.2901 43.4217C42.5703 43.426 41.8548 43.3096 41.1721 43.0774C40.5408 42.8635 39.9572 42.5249 39.4546 42.0809C38.9678 41.6524 38.579 41.1205 38.3156 40.5227C38.0457 39.8897 37.9092 39.2061 37.9151 38.5161C37.8999 37.6829 38.0513 36.8553 38.3601 36.0836C38.6278 35.415 39.0453 34.8194 39.5792 34.3442C40.108 33.8855 40.7225 33.5403 41.3857 33.3296C42.1058 33.1012 42.8563 32.9881 43.6105 32.9944C44.1262 32.9978 44.6397 33.0616 45.1411 33.1846C45.6302 33.2916 46.101 33.4717 46.5382 33.7191C46.4848 33.9366 46.427 34.1721 46.3647 34.4892C46.3024 34.8063 46.249 35.0282 46.209 35.2094H46.0087C45.7384 34.8067 45.3787 34.4747 44.9587 34.2401C44.552 34.0037 44.0921 33.8788 43.6238 33.8777C43.1042 33.8641 42.5906 33.994 42.1377 34.2536C41.7124 34.503 41.3535 34.8545 41.092 35.2773C40.8144 35.7157 40.6099 36.1979 40.4869 36.7042C40.3574 37.2346 40.2931 37.7793 40.2956 38.3258C40.282 39.0806 40.4167 39.8306 40.6916 40.5318C40.9247 41.1452 41.3395 41.6696 41.8784 42.0324C42.4173 42.3951 43.0537 42.5783 43.6995 42.5565C44.1603 42.5471 44.6145 42.4423 45.0343 42.2485C45.4787 42.0648 45.886 41.7991 46.2357 41.4649L46.4225 41.5509L46.4314 41.5419ZM54.4005 33.2662C54.356 33.6195 54.3293 33.8278 54.3293 33.8913C54.3293 33.9547 54.356 34.163 54.4005 34.5164C53.3011 34.3745 52.1938 34.3064 51.0856 34.3125V37.4516H52.5896C53.1773 37.44 53.764 37.3961 54.3471 37.3202C54.3087 37.5221 54.2834 37.7264 54.2715 37.9317C54.2848 38.1429 54.3101 38.3531 54.3471 38.5614C53.7647 38.4796 53.1774 38.4402 52.5896 38.4436H51.0856V42.1217C52.1938 42.1278 53.3011 42.0597 54.4005 41.9178C54.356 42.2712 54.3293 42.4795 54.3293 42.5429C54.3293 42.6064 54.356 42.8147 54.4005 43.168H48.9454V33.2662H54.4005ZM59.1615 43.2315L58.6186 43.1997C58.3828 43.1997 58.2048 43.1997 58.0847 43.1997C57.9646 43.1997 57.7821 43.1997 57.5507 43.1997L57.0168 43.2315V33.2662H60.5275C61.333 33.2079 62.1347 33.4246 62.8056 33.8822C63.0701 34.1032 63.2788 34.3856 63.4143 34.7055C63.5497 35.0254 63.608 35.3737 63.5843 35.7212C63.624 36.4107 63.4309 37.0932 63.037 37.6554C62.6497 38.1356 62.1181 38.473 61.5241 38.6157C60.7509 38.8063 59.9568 38.8946 59.1615 38.8784V43.2315ZM59.1615 38.0721C59.4765 38.0638 59.7904 38.0305 60.1003 37.9725C60.3001 37.9249 60.4884 37.8371 60.6543 37.7142C60.8201 37.5912 60.96 37.4357 61.0658 37.2568C61.2781 36.873 61.3842 36.4379 61.3729 35.9976C61.3939 35.5044 61.2599 35.0172 60.9902 34.607C60.8887 34.4454 60.7493 34.312 60.5847 34.2187C60.4201 34.1254 60.2353 34.0752 60.0469 34.0725H59.157V38.0721H59.1615ZM63.8735 42.1489H63.255C63.298 42.4033 63.3218 42.6608 63.3262 42.9189C63.3308 43.182 63.307 43.4448 63.255 43.7025H63.4686C63.7019 43.4522 64.0201 43.3016 64.3585 43.2813C64.878 43.2164 65.4013 43.1876 65.9247 43.1952H70.1206C70.61 43.1909 71.0992 43.2212 71.5845 43.2858C71.9223 43.3049 72.2403 43.4538 72.4744 43.7025H72.6924C72.6378 43.445 72.6095 43.1824 72.6079 42.9189C72.6079 42.8646 72.6346 42.6064 72.6924 42.1489H72.0072C70.6901 38.8513 69.5599 35.8888 68.6167 33.2616C68.5136 33.2635 68.4109 33.2741 68.3096 33.2933C68.208 33.3091 68.1054 33.3182 68.0026 33.3205C67.9072 33.3177 67.8121 33.3086 67.7179 33.2933C67.6152 33.2735 67.5109 33.2629 67.4064 33.2616C67.1884 33.8777 66.9392 34.5707 66.6455 35.3317C66.3519 36.0927 66.0493 36.8809 65.7245 37.6917C65.3997 38.5025 65.1149 39.2 64.8702 39.7934C64.6255 40.3868 64.2917 41.1523 63.8824 42.1489H63.8735ZM69.5822 42.1489L68.5188 42.1851C68.0471 42.1851 67.6289 42.1851 67.2418 42.1851C66.8547 42.1851 66.4942 42.1851 66.0626 42.1851L65.0837 42.1489C65.5495 40.7537 66.3207 38.7124 67.3975 36.0247C67.8958 37.3837 68.3141 38.5387 68.6567 39.4673C68.9993 40.3959 69.3108 41.2792 69.5822 42.1489ZM81.9385 43.1952H79.0641C77.9295 43.1952 77.0351 43.1952 76.3944 43.1952C75.7537 43.1952 75.1975 43.1952 74.7303 43.2405V33.2662C74.8489 33.2662 75.0269 33.2752 75.2642 33.2933C75.5015 33.3115 75.6795 33.3205 75.7982 33.3205C75.9183 33.3205 76.1007 33.3205 76.3365 33.2933C76.5724 33.2662 76.7548 33.2662 76.8749 33.2662V42.099H77.6091C78.1519 42.099 78.6369 42.1217 79.0685 42.1217C79.5001 42.1217 79.9584 42.1217 80.5191 42.099H81.2443V33.2662C81.3645 33.2662 81.538 33.2662 81.7783 33.2933C82.0186 33.3205 82.1876 33.3205 82.2989 33.3205C82.4101 33.3205 82.6103 33.3205 82.8506 33.2933C83.0909 33.2662 83.2689 33.2662 83.3845 33.2662V42.1353H84.5147C84.4612 42.3931 84.4314 42.6555 84.4257 42.9189C84.4296 43.178 84.4594 43.436 84.5147 43.689H84.3011C84.0892 43.4494 83.794 43.3032 83.478 43.2813C82.973 43.2189 82.4649 43.1857 81.9563 43.1816L81.9385 43.1952ZM91.9231 33.2662C91.8786 33.6195 91.8519 33.8278 91.8519 33.8913C91.8519 33.9547 91.8786 34.163 91.9231 34.5164C90.8238 34.3745 89.7164 34.3064 88.6083 34.3125V37.4516H90.1433C90.7385 37.4408 91.3327 37.3969 91.9231 37.3202C91.8847 37.5221 91.8594 37.7264 91.8475 37.9317C91.8609 38.1429 91.8861 38.3531 91.9231 38.5614C91.3334 38.4785 90.7386 38.4392 90.1433 38.4436H88.6394V42.1217C89.7476 42.1278 90.8549 42.0597 91.9543 41.9178C91.9098 42.2712 91.8831 42.4795 91.8831 42.5429C91.8831 42.6064 91.9098 42.8147 91.9543 43.168H86.4814V33.2662H91.9231Z" fill="white"/>
<path fill-rule="evenodd" clip-rule="evenodd" d="M43.2028 58.8045L42.6199 58.7728C42.3618 58.7728 42.1749 58.7456 42.0503 58.7456C41.9258 58.7456 41.7389 58.7456 41.4808 58.7728L40.9024 58.8045V49.2378C39.9495 49.2465 38.9982 49.3192 38.0547 49.4553C38.1556 49.0204 38.1556 48.5675 38.0547 48.1326H45.9392C45.9392 48.2323 45.9125 48.3093 45.8992 48.3817C45.8823 48.4533 45.8704 48.5259 45.8636 48.5991C45.8601 48.6625 45.8601 48.7261 45.8636 48.7894C45.8601 48.8543 45.8601 48.9193 45.8636 48.9842C45.87 49.059 45.8819 49.1332 45.8992 49.2061C45.8992 49.2786 45.9259 49.3601 45.9392 49.4553C45.0316 49.3323 44.1181 49.2598 43.2028 49.2378V58.8045ZM54.104 48.1326C54.0551 48.5131 54.024 48.7396 54.024 48.803C54.024 48.8664 54.0551 49.0929 54.104 49.4734C52.9235 49.3217 51.7344 49.2491 50.5444 49.256V52.6215H52.1507C52.7817 52.6085 53.4115 52.5602 54.0373 52.4766C53.9958 52.6933 53.969 52.9128 53.9572 53.1334C53.9706 53.3598 53.9974 53.5851 54.0373 53.8083C53.4121 53.7209 52.7817 53.6786 52.1507 53.6815H50.5444V57.6223C51.7344 57.6292 52.9235 57.5565 54.104 57.4049C54.0551 57.7853 54.024 58.0118 54.024 58.0753C54.024 58.1387 54.0551 58.3652 54.104 58.7456H48.2663V48.1326H54.104ZM58.3133 55.5658C58.2243 55.8376 58.0997 56.2 57.9395 56.6575C57.7793 57.115 57.6369 57.5136 57.5213 57.8624C57.4056 58.2111 57.3166 58.5192 57.2409 58.7909L56.8983 58.7638C56.7292 58.7638 56.6047 58.7638 56.5246 58.7638C56.4445 58.7638 56.3243 58.7638 56.1597 58.7638L55.7904 58.7909L60.1687 47.9922C60.36 48.0229 60.5535 48.038 60.7471 48.0375C60.9423 48.038 61.1372 48.0228 61.33 47.9922L65.6015 58.8045L64.9297 58.7728C64.636 58.7728 64.418 58.7456 64.2667 58.7456C64.1154 58.7456 63.9018 58.7456 63.6126 58.7728L62.9674 58.8045C62.5047 57.2946 62.1428 56.2151 61.8818 55.5658H58.3133ZM61.5303 54.6191L60.1687 50.9954L58.7271 54.6191H61.5303ZM70.3937 58.8045V49.2378C71.309 49.2598 72.2225 49.3323 73.1301 49.4553C73.1301 49.3601 73.1034 49.2786 73.0901 49.2061C73.0728 49.1332 73.0609 49.059 73.0545 48.9842C73.051 48.9193 73.051 48.8543 73.0545 48.7894C73.0509 48.7261 73.0509 48.6625 73.0545 48.5991C73.0613 48.5259 73.0732 48.4533 73.0901 48.3817C73.0901 48.3093 73.1168 48.2323 73.1301 48.1326H65.2589C65.3079 48.495 65.3301 48.7124 65.3301 48.7894C65.3301 48.8664 65.3079 49.0929 65.2589 49.4553C66.2009 49.319 67.1507 49.2464 68.1022 49.2378V58.8045L68.6806 58.7728C68.9387 58.7728 69.1255 58.7456 69.2546 58.7456C69.3836 58.7456 69.5616 58.7456 69.8197 58.7728L70.4026 58.8045H70.3937ZM77.9089 58.8045L77.3304 58.7728C77.0753 58.7547 76.884 58.7456 76.7564 58.7456C76.6274 58.7456 76.4316 58.7456 76.1825 58.7728L75.6085 58.8045V48.1326H79.3772C80.2408 48.0731 81.0995 48.3056 81.82 48.7939C82.1023 49.0314 82.3247 49.3341 82.4687 49.6769C82.6127 50.0197 82.674 50.3925 82.6476 50.7644C82.692 51.502 82.4862 52.2328 82.0647 52.8344C81.6501 53.3516 81.0791 53.7147 80.4406 53.8672C79.6118 54.0695 78.7611 54.1639 77.9089 54.148V58.8045ZM77.9089 53.2738C78.2477 53.2666 78.5855 53.2318 78.9189 53.1696C79.1325 53.1172 79.3337 53.0221 79.5109 52.89C79.6881 52.7578 79.8377 52.5911 79.9512 52.3996C80.1796 51.9852 80.2934 51.5156 80.2804 51.0407C80.3038 50.5136 80.1603 49.9928 79.8711 49.5549C79.7623 49.3807 79.6126 49.2369 79.4354 49.1364C79.2583 49.036 79.0594 48.9821 78.8566 48.9797H77.9089V53.2647V53.2738ZM84.6721 55.5658H88.2317C88.4942 56.2226 88.8546 57.3007 89.3218 58.8045L89.9626 58.7728C90.2562 58.7728 90.4743 58.7456 90.6211 58.7456C90.7679 58.7456 90.9904 58.7456 91.2841 58.7728L91.9515 58.8045L87.68 47.9922C87.2951 48.0525 86.9035 48.0525 86.5187 47.9922L82.1359 58.7909L82.5096 58.7638C82.6698 58.7638 82.79 58.7638 82.8701 58.7638C82.9501 58.7638 83.0792 58.7638 83.2438 58.7638L83.5864 58.7909C83.6621 58.5192 83.7555 58.2111 83.8668 57.8624C83.978 57.5136 84.1204 57.115 84.285 56.6575C84.4496 56.2 84.5742 55.8376 84.6632 55.5658H84.6721ZM87.8847 54.6191H85.0859L86.5231 50.9954L87.8847 54.6191Z" fill="white"/>
<path fill-rule="evenodd" clip-rule="evenodd" d="M29.3266 22.8472L29.4735 22.8744C29.5386 22.8786 29.604 22.8786 29.6692 22.8744H29.7849H29.9051L30.043 22.8517C30.1142 23.4723 30.1898 24.12 30.2655 24.7904C30.3411 25.4608 30.3945 25.9591 30.4345 26.2671C30.4746 26.5751 30.5191 26.9556 30.5814 27.4086C30.6437 27.8615 30.7104 28.3145 30.7861 28.7312H30.4301H30.0786H29.7404H29.4023C29.4023 28.4141 29.3622 28.0789 29.3355 27.7347C29.3088 27.3904 29.2777 27.0734 29.251 26.788C29.2243 26.5026 29.1887 26.2082 29.1575 25.8821C29.1264 25.5559 29.0864 25.189 29.0374 24.727C28.9351 24.9444 28.7838 25.2524 28.5925 25.6329L28.0941 26.6702L27.6047 27.7166C27.4133 28.1197 27.271 28.4368 27.1597 28.6588H26.8393C26.7504 28.4534 26.602 28.1514 26.3944 27.7528L25.9494 26.8106C25.8427 26.5887 25.678 26.258 25.4645 25.8096L24.9839 24.8131C24.8008 26.1046 24.682 27.4048 24.6279 28.7086H24.4322H24.2319H24.0406C23.9561 28.7086 23.8893 28.7086 23.8359 28.7086C23.9783 27.934 24.1118 27.1096 24.2319 26.249C24.3521 25.3883 24.5123 24.2423 24.7036 22.8291L24.8371 22.8517H24.9483H25.0507H25.1574H25.2731L25.3977 22.8291C25.5846 23.2367 25.7359 23.5629 25.8427 23.8075C25.9495 24.0521 26.1096 24.3691 26.2876 24.7632L26.8349 25.8821C27.0129 26.2354 27.1731 26.5615 27.3199 26.865C27.3599 26.7789 27.489 26.5298 27.6981 26.1176C27.9072 25.7054 28.0986 25.3159 28.2854 24.9535L28.8194 23.8527C28.9929 23.4858 29.1486 23.1416 29.2866 22.8291L29.3266 22.8472ZM34.1944 27.164C34.0787 26.9194 33.9141 26.5977 33.6871 26.2082C33.4602 25.8186 33.2422 25.4155 32.9752 25.0033C32.7082 24.5911 32.4724 24.188 32.2277 23.7848C31.983 23.3817 31.7827 23.0646 31.6804 22.8472L31.9696 22.8698H32.2188H32.4368H32.6504H32.904L33.1888 22.8472C33.2555 22.9831 33.4024 23.2503 33.6337 23.6444C33.8651 24.0385 34.0787 24.4462 34.3279 24.8584C34.577 25.2706 34.7283 25.5695 34.8173 25.7643C34.9246 25.594 35.0212 25.417 35.1065 25.2343C35.2222 25.0033 35.3512 24.7315 35.4981 24.4145C35.6449 24.0974 35.7784 23.7984 35.903 23.5085C36.0276 23.2186 36.1255 23.0012 36.1877 22.8653C36.3212 22.8653 36.4592 22.888 36.5971 22.888C36.735 22.888 36.8596 22.8879 37.002 22.8653C36.7766 23.279 36.4592 23.883 36.0498 24.6772C35.6449 25.4834 35.2578 26.2761 34.8929 27.0462C34.5281 27.8162 34.2789 28.3779 34.1454 28.7312H33.9808H33.7895H33.6026H33.4291C33.5314 28.541 33.6649 28.2783 33.8251 27.9476C33.9852 27.6169 34.1054 27.3633 34.1944 27.173V27.164ZM39.298 25.3023C39.4032 25.3087 39.5087 25.3087 39.6139 25.3023C40.3391 25.3023 40.6995 24.9036 40.6995 24.1155C40.7062 23.8515 40.64 23.591 40.5082 23.3636C40.4422 23.257 40.349 23.1707 40.2384 23.114C40.1279 23.0574 40.0043 23.0324 39.8808 23.0419C39.7519 23.0303 39.622 23.0501 39.5021 23.0997C39.3821 23.1493 39.2755 23.2274 39.1912 23.3273C39.0306 23.5625 38.9256 23.8322 38.8841 24.1155H38.7418C38.3903 23.7848 38.1633 23.581 38.0654 23.504C38.2027 23.2939 38.3797 23.1138 38.586 22.974C38.7792 22.8472 38.9932 22.7567 39.2179 22.7068C39.4755 22.6531 39.738 22.6273 40.001 22.6298C40.3795 22.6208 40.7565 22.6822 41.1133 22.8109C41.3902 22.9086 41.633 23.0865 41.8119 23.3228C41.9706 23.5397 42.0536 23.8043 42.0477 24.0747C42.0477 24.8267 41.6339 25.3113 40.8108 25.5242C41.078 25.5773 41.3401 25.6547 41.5939 25.7552C41.8017 25.8431 41.9806 25.9891 42.11 26.1765C42.2592 26.4137 42.3323 26.6923 42.3192 26.9737C42.3223 27.2366 42.2579 27.4959 42.1323 27.7256C42.0063 27.9541 41.8314 28.1507 41.6206 28.3009C41.3831 28.4669 41.1199 28.5909 40.8419 28.6678C40.5273 28.7549 40.2024 28.7976 39.8764 28.7946C39.6268 28.7941 39.3779 28.7684 39.1333 28.7176C38.8981 28.6666 38.6696 28.5875 38.4525 28.4821C38.2483 28.3826 38.0606 28.2512 37.8964 28.0925C38.1224 27.8686 38.3335 27.6295 38.5282 27.3769H38.6661C38.7013 27.6593 38.8245 27.9228 39.0176 28.1288C39.118 28.2295 39.2379 28.3077 39.3697 28.3584C39.5015 28.4091 39.6423 28.4312 39.7829 28.4232C40.0076 28.4265 40.228 28.3601 40.4148 28.233C40.5915 28.1054 40.735 27.9359 40.833 27.7392C40.9279 27.553 40.9782 27.3466 40.9799 27.1368C40.9799 26.2988 40.5928 25.8821 39.823 25.8821C39.6472 25.8883 39.4719 25.9049 39.298 25.9319V25.3159V25.3023ZM45.2247 25.3793H46.0345C46.5062 25.3499 46.9746 25.477 47.3693 25.7416C47.5218 25.8749 47.6414 26.0426 47.7187 26.2314C47.796 26.4202 47.8287 26.6248 47.8143 26.8288C47.8441 27.1051 47.8033 27.3847 47.6957 27.6402C47.5881 27.8958 47.4174 28.1187 47.2003 28.2873C46.7261 28.5781 46.1782 28.7199 45.6251 28.695H43.9566V22.8472H44.2591C44.3688 22.8529 44.4787 22.8529 44.5884 22.8472C44.6774 22.8472 44.7886 22.8472 44.9221 22.8472H45.2247V25.4155V25.3793ZM48.5974 22.8472L48.8377 22.8698H49.0468H49.2337H49.4117H49.6208L49.8611 22.8472V28.7358H49.5496H49.2337H48.9178H48.5974V22.8472ZM45.2247 28.2148C45.4121 28.2198 45.5992 28.1985 45.7809 28.1514C46.0175 28.0949 46.2223 27.945 46.3504 27.7347C46.4737 27.506 46.5352 27.2481 46.5284 26.9873C46.5423 26.6968 46.4643 26.4094 46.3059 26.1674C46.2465 26.0716 46.1645 25.9923 46.0674 25.9369C45.9703 25.8815 45.8611 25.8518 45.7497 25.8504H45.2247V28.2148ZM51.761 22.8472L52.0324 22.8744C52.1926 22.8744 52.3127 22.8744 52.3928 22.8744H52.5708H52.7844L53.0291 22.8517V25.565C53.7766 24.6892 54.5078 23.7939 55.2227 22.8789L55.3918 22.9015H55.5431H55.6766C55.73 22.9015 55.8189 22.9015 55.9346 22.9015L56.1215 22.8744V22.9378C55.7389 23.3137 55.3384 23.7305 54.9157 24.197C54.493 24.6636 54.1726 25.0395 53.9368 25.3204L56.2906 28.6452V28.7358H55.9302H55.5787H55.2138H54.8579L53.0291 26.0179V28.7358H52.7087H52.3928H52.0814H51.761V22.8472ZM57.6877 26.9239C57.6388 27.0734 57.5676 27.2727 57.4786 27.5263C57.3896 27.78 57.314 27.9793 57.2472 28.1877C57.1805 28.396 57.136 28.55 57.096 28.704H56.9046H56.6999H56.4997H56.295L58.7067 22.7475C58.8126 22.7654 58.9197 22.7745 59.027 22.7747C59.1344 22.7747 59.2415 22.7656 59.3474 22.7475L61.7012 28.7358H61.3319H60.967H60.6066H60.2506C59.997 27.9068 59.8057 27.3134 59.65 26.9511L57.6877 26.9239ZM59.4675 26.403L58.7156 24.4009L57.9236 26.403H59.4675ZM65.1273 22.8517H65.2074H65.3053H65.3943H65.4922C65.679 23.3726 65.8481 23.8301 65.995 24.2106C66.1418 24.5911 66.3287 25.1165 66.5556 25.6828C66.7825 26.249 66.956 26.7246 67.0895 27.0417L67.7525 28.7086L67.4722 28.6814H67.2186H67.0094H66.8003H66.5467L66.2664 28.7086C66.1744 28.3824 66.0676 28.0427 65.946 27.6894C65.8259 27.3316 65.7191 27.0235 65.6212 26.7563L65.2163 25.6601C65.0428 25.2071 64.8959 24.7949 64.7713 24.4552C64.0861 26.1402 63.5626 27.558 63.2007 28.7086C63.0694 28.6907 62.9371 28.6816 62.8047 28.6814C62.6752 28.6811 62.5458 28.6902 62.4176 28.7086L63.0716 27.1458C63.2719 26.6929 63.4632 26.2037 63.6501 25.7507C63.8369 25.2977 64.0238 24.8176 64.2152 24.3284C64.4065 23.8392 64.5889 23.3364 64.7713 22.8245H64.9182C64.9863 22.8296 65.0547 22.8296 65.1228 22.8245L65.1273 22.8517ZM70.2843 25.3611H71.0941C71.566 25.3301 72.0349 25.4574 72.4289 25.7235C72.5822 25.856 72.7024 26.0237 72.7798 26.2126C72.8571 26.4016 72.8894 26.6065 72.8739 26.8106C72.9043 27.0862 72.8646 27.3651 72.7586 27.6205C72.6527 27.8759 72.484 28.0993 72.2687 28.2692C71.794 28.5587 71.2465 28.7004 70.6936 28.6769H69.0073V22.8472H69.3098C69.4195 22.8529 69.5294 22.8529 69.6391 22.8472C69.7503 22.8529 69.8616 22.8529 69.9728 22.8472H70.2754V25.4155L70.2843 25.3611ZM70.2843 28.1967C70.4716 28.2014 70.6588 28.1801 70.8405 28.1333C70.9585 28.1062 71.0699 28.0549 71.1679 27.9825C71.2658 27.91 71.3482 27.818 71.41 27.712C71.5353 27.4856 71.5983 27.229 71.5924 26.9692C71.605 26.6782 71.5255 26.3908 71.3655 26.1493C71.3064 26.0531 71.2245 25.9737 71.1273 25.9183C71.0301 25.8628 70.9207 25.8333 70.8093 25.8322H70.2843V28.1967ZM74.2488 22.8472L74.4935 22.8698H74.7026H74.8806H75.0586H75.2721L75.5169 22.8472V25.1754C76.2155 25.2026 76.6426 25.2162 76.8028 25.2162L78.0931 25.1754V22.8472L78.3379 22.8698H78.547H78.7205H78.9074H79.121L79.3612 22.8472V28.7358H79.0453H78.7205H78.4091H78.0931V25.8685C77.5103 25.8685 77.0786 25.8368 76.8028 25.8368C76.5269 25.8368 76.0731 25.8368 75.5169 25.8685V28.7358H75.1965H74.8806H74.5647H74.2488V22.8472ZM83.9665 28.849C83.3988 28.8619 82.8361 28.7377 82.3246 28.4866C81.8647 28.2573 81.4845 27.8907 81.2345 27.4357C80.9622 26.9297 80.8271 26.3591 80.8429 25.7824C80.8408 25.3696 80.9179 24.9603 81.0698 24.5775C81.2189 24.2037 81.4433 23.8658 81.7284 23.5855C82.029 23.2936 82.3869 23.0698 82.7785 22.9287C83.2245 22.7632 83.6964 22.6819 84.1711 22.6886C84.6726 22.6767 85.1711 22.7708 85.635 22.965C86.0114 23.125 86.3453 23.3734 86.6095 23.6897C86.8425 23.9792 87.0192 24.3113 87.1301 24.6681C87.2364 25.0188 87.2903 25.3837 87.2903 25.7507C87.2924 26.1577 87.2152 26.561 87.0633 26.9375C86.9115 27.3123 86.6859 27.6514 86.4004 27.934C86.0948 28.2282 85.7348 28.4576 85.3414 28.6089C84.9011 28.7729 84.4353 28.8543 83.9665 28.849ZM82.2445 26.0316C82.2421 26.4142 82.3054 26.7944 82.4314 27.1549C82.5436 27.4887 82.7455 27.7838 83.0143 28.0065C83.2972 28.2304 83.6484 28.3459 84.0065 28.3326C84.3887 28.343 84.7612 28.2091 85.0522 27.9567C85.3508 27.6872 85.5709 27.3393 85.6884 26.9511C85.8284 26.5123 85.8975 26.0534 85.8931 25.5922C85.8928 25.3051 85.8584 25.0192 85.7908 24.7406C85.7256 24.4694 85.6174 24.2108 85.4704 23.9751C85.3313 23.7465 85.1386 23.5566 84.9098 23.4225C84.668 23.2806 84.3922 23.21 84.1133 23.2186C83.7547 23.2065 83.4019 23.3129 83.1077 23.5221C82.8049 23.7605 82.5812 24.0878 82.467 24.4597C82.3068 24.9704 82.2316 25.5047 82.2445 26.0406V26.0316ZM91.9222 22.8472C91.891 23.0555 91.8777 23.1778 91.8777 23.2141C91.8777 23.2503 91.8777 23.3726 91.9222 23.5855C91.273 23.5005 90.6189 23.4596 89.9644 23.4632V25.3204H90.8543C91.2011 25.3122 91.5471 25.285 91.891 25.2389C91.8703 25.3587 91.8569 25.4797 91.851 25.6012C91.8577 25.7257 91.871 25.8497 91.891 25.9727C91.5474 25.9262 91.201 25.9035 90.8543 25.9047H89.9644V28.0744C90.6188 28.0794 91.2729 28.0401 91.9222 27.9567C91.891 28.165 91.8777 28.2919 91.8777 28.3236C91.8863 28.4481 91.9012 28.572 91.9222 28.695H88.6963V22.8472H91.9222Z" fill="white"/>
<path fill-rule="evenodd" clip-rule="evenodd" d="M16.1795 67.6915C18.56 64.8786 19.1384 64.6114 21.074 62.1744C20.936 61.5221 20.669 61.0284 20.5 60.3625C19.9838 61.1461 19.0761 61.9298 18.6801 62.5005C16.3308 57.4273 9.02026 54.0164 5.41172 49.5954C2.51064 46.0396 2.91109 42.4385 5.35832 40.2598C2.65302 40.373 -0.390435 43.2312 0.0411669 47.0543C0.859875 54.4241 15.1784 61.2277 16.1795 67.6915Z" fill="#B29E83"/>
<path fill-rule="evenodd" clip-rule="evenodd" d="M7.77523 36.7085C8.66513 34.7155 10.2002 31.5492 10.9121 30.0409L13.168 36.781C13.613 35.1866 14.1024 33.719 15.2148 33.1573C12.4961 25.262 10.8454 20.4742 10.3203 18.6623C8.93655 13.7748 7.72628 10.5723 11.6018 4.87848C13.5329 4.81506 19.2104 7.77746 15.1169 16.7598L12.5228 22.4627L13.2526 24.5781L16.5897 17.5706C20.5497 9.24054 20.127 1.12789 13.9912 0C11.1213 1.84811 4.20228 9.9653 8.06444 21.7153C8.46045 22.8704 9.63956 26.2676 10.1335 27.7352C8.93209 30.4213 7.09 34.3214 6.12891 36.5002C6.68614 36.4226 7.25363 36.4944 7.77523 36.7085Z" fill="#B29E83"/>
<path fill-rule="evenodd" clip-rule="evenodd" d="M17.7394 41.0469C17.5254 41.62 17.2005 42.1435 16.7839 42.5862C16.3674 43.029 15.8676 43.382 15.3144 43.6243L20.369 57.9879L21.7039 61.8698C23.4837 66.9567 24.2267 76.5188 21.1343 78.675C17.3834 80.5684 12.8894 74.0275 12.5379 72.1567C11.3295 73.9536 10.5745 76.0258 10.3398 78.1903C11.6747 80.3328 33.6953 88.0061 24.3469 60.0444L22.8429 55.6098L17.7394 41.0469Z" fill="#B29E83"/>
<path fill-rule="evenodd" clip-rule="evenodd" d="M28.5117 45.1792C27.9244 49.3692 25.268 54.2386 23.2123 57.2146L23.9732 59.2031C26.2914 55.8965 31.4884 49.9218 32.6675 44.6674C34.4473 36.7993 26.723 35.0101 21.2812 35.83C26.2068 36.5094 29.4194 38.7018 28.5117 45.1792Z" fill="#B29E83"/>
<path fill-rule="evenodd" clip-rule="evenodd" d="M9.9683 41.5022C9.85295 41.5268 9.74398 41.5759 9.64847 41.6462C9.55295 41.7165 9.47303 41.8065 9.41387 41.9103C9.35472 42.0141 9.31765 42.1294 9.30508 42.2487C9.29251 42.368 9.30472 42.4887 9.34092 42.6029C9.31422 43.0332 7.96158 43.2189 8.48217 43.6991C8.94276 43.5175 9.43016 43.4164 9.92381 43.4001C11.1919 43.3276 13.7771 43.853 15.5613 42.3175C18.0397 40.1885 17.4746 38.1275 19.3167 37.3892C18.972 37.2603 18.5935 37.2603 18.2488 37.3892C17.4346 37.7017 16.9896 38.5216 16.5091 39.2011C16.6219 38.2989 16.9988 37.4522 17.5908 36.7712C18.1828 36.0902 18.9625 35.6063 19.8284 35.3825C23.5091 34.4464 27.3837 34.6868 30.9254 36.0711C29.1857 33.2174 18.9518 32.1484 15.8372 33.7202C14.6225 34.3317 13.8483 37.4843 13.3989 38.7572C13.3274 38.9636 13.2457 39.1662 13.1541 39.3642C12.2153 39.6405 11.1519 39.1603 10.3154 38.7436H10.2931C9.25193 38.2181 7.7569 37.2669 6.50214 37.362C4.6823 37.4979 -0.100919 39.7401 0.108208 42.3718C0.597653 41.5248 1.68778 40.791 2.88915 40.2656C4.31298 39.6495 6.68457 39.0697 8.22855 39.6223C8.89425 39.8773 9.48958 40.2922 9.96385 40.8318C10.818 40.8389 11.6645 40.6678 12.4511 40.329C11.7207 40.9051 10.872 41.3061 9.9683 41.5022Z" fill="white"/>
</svg>
