<svg width="20" height="32" viewBox="0 0 20 32" fill="none" xmlns="http://www.w3.org/2000/svg">
<path d="M9.99983 17.3171C14.7818 17.3171 18.6584 13.4406 18.6584 8.65852C18.6584 3.8765 14.7819 0 9.99983 0C5.21781 0 1.34131 3.87656 1.34131 8.65859C1.34718 13.4381 5.22031 17.3112 9.99983 17.3171ZM9.99983 3.99626C12.5747 3.99626 14.6622 6.08362 14.6622 8.65859C14.6622 11.2336 12.5748 13.3209 9.99983 13.3209C7.42487 13.3209 5.33751 11.2336 5.33751 8.65859C5.33751 6.08362 7.42493 3.99626 9.99983 3.99626Z" fill="#FF9800"/>
<path d="M18.4815 21.4211C19.4225 20.8013 19.9895 19.7505 19.9908 18.6237C20.0039 17.6886 19.4762 16.8299 18.636 16.4191C17.7728 15.988 16.7396 16.0851 15.9718 16.6696C12.4137 19.2636 7.58781 19.2636 4.02971 16.6696C3.2608 16.0881 2.22933 15.9911 1.36551 16.4191C0.525734 16.8299 -0.00220945 17.6876 0.00946713 18.6224C0.0114653 19.7489 0.578248 20.7995 1.51874 21.4198C2.72536 22.2222 4.03938 22.85 5.42178 23.2847C5.65625 23.3575 5.89821 23.425 6.14779 23.4872L2.12224 27.4235C1.06623 28.4481 1.04069 30.1347 2.06529 31.1908C3.0899 32.2468 4.77651 32.2724 5.83258 31.2478C5.85456 31.2264 5.87617 31.2047 5.8974 31.1826L10.0002 26.9359L14.1111 31.1906C15.1348 32.2474 16.8215 32.2743 17.8783 31.2506C18.9351 30.2268 18.962 28.5402 17.9383 27.4833C17.9168 27.4612 17.895 27.4395 17.8729 27.4181L13.854 23.4858C14.1035 23.4219 14.3464 23.3539 14.5826 23.282C15.9635 22.849 17.2763 22.2225 18.4815 21.4211Z" fill="#FF9800"/>
</svg>
