<svg width="18" height="18" viewBox="0 0 18 18" fill="none" xmlns="http://www.w3.org/2000/svg">
<path d="M17.4245 16.3951L13.1405 11.9395C14.242 10.6301 14.8455 8.98262 14.8455 7.26749C14.8455 3.26026 11.5853 0 7.57804 0C3.57081 0 0.310547 3.26026 0.310547 7.26749C0.310547 11.2747 3.57081 14.535 7.57804 14.535C9.08241 14.535 10.516 14.0812 11.7417 13.2199L16.0583 17.7093C16.2387 17.8967 16.4813 18 16.7414 18C16.9875 18 17.2211 17.9062 17.3983 17.7355C17.775 17.3731 17.787 16.7721 17.4245 16.3951ZM7.57804 1.89587C10.54 1.89587 12.9497 4.30552 12.9497 7.26749C12.9497 10.2295 10.54 12.6391 7.57804 12.6391C4.61606 12.6391 2.20641 10.2295 2.20641 7.26749C2.20641 4.30552 4.61606 1.89587 7.57804 1.89587Z" fill="white"/>
</svg>
