<svg width="28" height="28" viewBox="0 0 28 28" fill="none" xmlns="http://www.w3.org/2000/svg">
<path d="M21.8765 14.5212L27.0955 6.63086H19.0916L18.9421 7.20972C18.5585 8.69621 17.8388 10.7108 16.5882 11.8671C16.4336 12.0098 16.2871 12.1247 16.1524 12.2165V6.63086H9.18122V8.17407H9.8325V11.6718C9.05096 10.9844 8.069 9.67289 7.81185 7.31867L7.73687 6.63086H0.861328L1.09749 7.58735C1.94632 11.0272 3.21988 13.8451 4.88293 15.963C6.2406 17.6921 7.85751 18.9616 9.68879 19.7361C11.3243 20.4278 12.83 20.5974 13.9135 20.5974C14.9101 20.5974 15.5492 20.4539 15.6029 20.4414L16.1905 20.3044L16.221 18.1844L18.8388 20.4617H27.1114L21.8765 14.5212Z" fill="white"/>
</svg>
