<svg width="38" height="22" viewBox="0 0 38 22" fill="none" xmlns="http://www.w3.org/2000/svg">
<path d="M32.7044 13.9197C33.9649 15.1504 35.2953 16.3082 36.4259 17.663C36.9253 18.2651 37.3981 18.8863 37.7598 19.585C38.2724 20.5782 37.8081 21.6711 36.9176 21.7304L31.3816 21.7279C29.9538 21.8463 28.8147 21.2716 27.857 20.2953C27.0906 19.5146 26.3807 18.6837 25.6438 17.8767C25.3416 17.5469 25.0254 17.2365 24.6476 16.9911C23.8919 16.5006 23.2359 16.6507 22.804 17.4389C22.3642 18.2407 22.2643 19.1283 22.2212 20.0218C22.1619 21.3253 21.7678 21.6681 20.4584 21.7277C17.66 21.8597 15.0041 21.4364 12.5369 20.0246C10.3617 18.7801 8.67497 17.0232 7.20677 15.0342C4.34839 11.1612 2.15931 6.90537 0.191916 2.53032C-0.250948 1.54463 0.0729431 1.01552 1.16054 0.996742C2.96651 0.961637 4.77225 0.96416 6.58037 0.994219C7.31439 1.00498 7.8003 1.42595 8.08374 2.11938C9.06083 4.52191 10.2564 6.8077 11.7571 8.92642C12.1568 9.49048 12.5643 10.0546 13.1446 10.4516C13.7866 10.8912 14.2754 10.7455 14.5774 10.0304C14.769 9.57687 14.8529 9.08844 14.8961 8.60283C15.0392 6.93194 15.0581 5.26387 14.8071 3.59885C14.6531 2.55971 14.0678 1.887 13.0309 1.69039C12.5018 1.59012 12.5805 1.39322 12.8367 1.09122C13.2817 0.570356 13.7002 0.246094 14.5345 0.246094H20.791C21.7759 0.440473 21.9946 0.882965 22.1295 1.87401L22.1348 8.82363C22.1241 9.20727 22.3265 10.3459 23.0175 10.5998C23.5706 10.7806 23.9352 10.3381 24.2671 9.98738C25.765 8.39754 26.8341 6.51862 27.7893 4.57305C28.2131 3.71753 28.5776 2.82913 28.9308 1.9414C29.1925 1.28271 29.6032 0.958594 30.3451 0.972918L36.3667 0.978262C36.5452 0.978262 36.7259 0.98086 36.8988 1.01047C37.9134 1.1834 38.1915 1.61988 37.8781 2.6107C37.3843 4.16521 36.4236 5.4607 35.4842 6.76213C34.48 8.15158 33.406 9.49353 32.4102 10.8912C31.4952 12.1678 31.5679 12.8111 32.7044 13.9197Z" fill="#436EAB"/>
</svg>
