<svg width="512" height="512" viewBox="0 0 512 512" fill="none" xmlns="http://www.w3.org/2000/svg">
<g clip-path="url(#clip0)">
<path d="M500.672 126.485L501.312 130.667C495.125 108.715 478.421 91.7761 457.195 85.6108L456.747 85.5041C416.832 74.6668 256.213 74.6668 256.213 74.6668C256.213 74.6668 95.9999 74.4535 55.6799 85.5041C34.0479 91.7761 17.3226 108.715 11.2426 130.219L11.1359 130.667C-3.77607 208.555 -3.88274 302.144 11.7973 385.536L11.1359 381.312C17.3226 403.264 34.0266 420.203 55.2533 426.368L55.7013 426.475C95.5733 437.333 256.235 437.333 256.235 437.333C256.235 437.333 416.427 437.333 456.768 426.475C478.421 420.203 495.147 403.264 501.227 381.76L501.333 381.312C508.117 345.088 512 303.403 512 260.821C512 259.264 512 257.685 511.979 256.107C512 254.656 512 252.928 512 251.2C512 208.597 508.117 166.912 500.672 126.485V126.485ZM204.971 333.888V178.304L338.645 256.213L204.971 333.888Z" fill="white"/>
</g>
<defs>
<clipPath id="clip0">
<rect width="512" height="512" fill="white"/>
</clipPath>
</defs>
</svg>
